<svg xmlns="http://www.w3.org/2000/svg" viewBox="0 0 396.02 67.66"><g id="Layer_2" data-name="Layer 2"><g id="Layer_1-2" data-name="Layer 1"><rect x="33.43" width="329.44" height="67.66" style="fill:#1db954"/><circle cx="33.83" cy="33.83" r="33.83" style="fill:#1db954"/><circle cx="362.19" cy="33.83" r="33.83" style="fill:#1db954"/><g id="Rbs1w3.tif"><path d="M48.78,12.74a21,21,0,1,0,21,21h0A21,21,0,0,0,48.78,12.74Zm9.64,30.31a1.3,1.3,0,0,1-1.8.43c-4.94-3-11.15-3.7-18.46-2a1.33,1.33,0,0,1-1.63-.89A1.31,1.31,0,0,1,37.42,39l.16,0c8-1.83,14.87-1,20.4,2.34A1.32,1.32,0,0,1,58.42,43.05ZM61,37.32a1.64,1.64,0,0,1-2.24.55h0c-5.65-3.47-14.26-4.47-20.94-2.45a1.64,1.64,0,0,1-1.18-3.06l.23-.07C44.48,30,54,31.09,60.45,35.07A1.64,1.64,0,0,1,61,37.32Zm.22-5.95c-6.77-4-17.94-4.4-24.41-2.43A2,2,0,1,1,35,25.4a2.07,2.07,0,0,1,.72-.22c7.42-2.26,19.76-1.82,27.56,2.81a2,2,0,0,1-2,3.38Z" style="fill:#fff"/></g><path d="M104.47,40.29a10.36,10.36,0,0,1-4.31.78c-4.59,0-8-2.9-8-8.25,0-5.1,3.46-8.56,8.51-8.56a8.67,8.67,0,0,1,3.87.73L104,26.7A7.8,7.8,0,0,0,100.7,26c-3.82,0-6.36,2.44-6.36,6.72,0,4,2.29,6.55,6.26,6.55a8.24,8.24,0,0,0,3.43-.68Z" style="fill:#fff"/><path d="M120.53,32.51c0,5.61-3.41,8.58-7.57,8.58s-7.33-3.34-7.33-8.27c0-5.17,3.22-8.56,7.57-8.56S120.53,27.67,120.53,32.51Zm-12.65.26c0,3.49,1.89,6.61,5.2,6.61s5.22-3.08,5.22-6.78c0-3.24-1.69-6.62-5.2-6.62S107.88,29.19,107.88,32.77Z" style="fill:#fff"/><path d="M123.26,40.83V24.53h2.3l5.22,8.24a45.38,45.38,0,0,1,2.93,5.3l0,0c-.2-2.17-.24-4.15-.24-6.69V24.53h2v16.3h-2.13l-5.18-8.28a51.57,51.57,0,0,1-3-5.44l-.08,0c.13,2.05.17,4,.17,6.72v7Z" style="fill:#fff"/><path d="M139.17,40.83V24.53h2.3l5.23,8.24a45.2,45.2,0,0,1,2.92,5.3l0,0c-.19-2.17-.24-4.15-.24-6.69V24.53h2v16.3h-2.13l-5.17-8.28a50,50,0,0,1-3.05-5.44l-.07,0c.12,2.05.17,4,.17,6.72v7Z" style="fill:#fff"/><path d="M163.53,33.18h-6.34v5.88h7.06v1.77h-9.16V24.53h8.8v1.76h-6.7v5.15h6.34Z" style="fill:#fff"/><path d="M178.38,40.29a10.4,10.4,0,0,1-4.31.78c-4.59,0-8-2.9-8-8.25,0-5.1,3.46-8.56,8.51-8.56a8.71,8.71,0,0,1,3.87.73l-.51,1.71a7.72,7.72,0,0,0-3.28-.67c-3.83,0-6.37,2.44-6.37,6.72,0,4,2.3,6.55,6.27,6.55a8.24,8.24,0,0,0,3.43-.68Z" style="fill:#fff"/><path d="M184.79,26.32h-5V24.53H191.9v1.79h-5V40.83h-2.13Z" style="fill:#fff"/><path d="M202.15,33.18h-6.33v5.88h7.06v1.77h-9.17V24.53h8.8v1.76h-6.69v5.15h6.33Z" style="fill:#fff"/><path d="M205.61,24.74a30.62,30.62,0,0,1,4.47-.34c3,0,5.18.71,6.61,2A7.5,7.5,0,0,1,219,32.29a8.6,8.6,0,0,1-2.34,6.33c-1.53,1.53-4,2.35-7.21,2.35a34.19,34.19,0,0,1-3.82-.19Zm2.1,14.42a14.25,14.25,0,0,0,2.13.12c4.5,0,6.94-2.52,6.94-6.92,0-3.84-2.15-6.29-6.6-6.29a12,12,0,0,0-2.47.22Z" style="fill:#fff"/><path d="M229,26.32h-5V24.53h12.07v1.79h-5V40.83H229Z" style="fill:#fff"/><path d="M251.15,32.51c0,5.61-3.41,8.58-7.57,8.58s-7.33-3.34-7.33-8.27c0-5.17,3.22-8.56,7.57-8.56S251.15,27.67,251.15,32.51Zm-12.65.26c0,3.49,1.89,6.61,5.2,6.61s5.23-3.08,5.23-6.78c0-3.24-1.7-6.62-5.2-6.62S238.5,29.19,238.5,32.77Z" style="fill:#fff"/><path d="M258.72,38.26a7.44,7.44,0,0,0,3.77,1.07c2.16,0,3.41-1.14,3.41-2.78s-.87-2.4-3.07-3.25c-2.66-.94-4.3-2.32-4.3-4.61,0-2.54,2.1-4.43,5.27-4.43a7.38,7.38,0,0,1,3.6.8l-.58,1.71a6.49,6.49,0,0,0-3.09-.77c-2.23,0-3.08,1.33-3.08,2.44,0,1.53,1,2.28,3.25,3.15,2.75,1.06,4.16,2.39,4.16,4.79s-1.87,4.69-5.71,4.69a8.43,8.43,0,0,1-4.16-1Z" style="fill:#fff"/><path d="M270.93,24.72a24.3,24.3,0,0,1,4-.32,6.68,6.68,0,0,1,4.57,1.36A4.36,4.36,0,0,1,281,29.17a4.76,4.76,0,0,1-1.26,3.48,6.72,6.72,0,0,1-5,1.79A7.26,7.26,0,0,1,273,34.3v6.53h-2.11ZM273,32.58a7.1,7.1,0,0,0,1.74.17c2.54,0,4.09-1.24,4.09-3.48s-1.53-3.2-3.85-3.2a9.18,9.18,0,0,0-2,.17Z" style="fill:#fff"/><path d="M297.73,32.51c0,5.61-3.41,8.58-7.57,8.58s-7.33-3.34-7.33-8.27c0-5.17,3.22-8.56,7.57-8.56S297.73,27.67,297.73,32.51Zm-12.65.26c0,3.49,1.89,6.61,5.2,6.61s5.23-3.08,5.23-6.78c0-3.24-1.7-6.62-5.2-6.62S285.08,29.19,285.08,32.77Z" style="fill:#fff"/><path d="M303,26.32H298V24.53h12.06v1.79h-5V40.83H303Z" style="fill:#fff"/><path d="M314,24.53v16.3h-2.1V24.53Z" style="fill:#fff"/><path d="M317.66,24.53h8.78v1.76h-6.68v5.42h6.17v1.74h-6.17v7.38h-2.1Z" style="fill:#fff"/><path d="M333.07,40.83V33.91l-5.16-9.38h2.4l2.3,4.49c.62,1.24,1.11,2.23,1.62,3.37h0c.46-1.07,1-2.13,1.65-3.37l2.35-4.49h2.39l-5.47,9.36v6.94Z" style="fill:#fff"/></g></g></svg>